<svg id="Layer_1" data-name="Layer 1" xmlns="http://www.w3.org/2000/svg" viewBox="0 0 623.62 311.81"><defs><style>.cls-1{fill:#fff;}</style></defs><title>player</title><circle class="cls-1" cx="313.13" cy="236.69" r="40.41"/><path d="M333.32,237.52a1.29,1.29,0,0,0-.51-.61l-29.87-17.62a1.09,1.09,0,0,0-1.55.61,1.79,1.79,0,0,0-.12.61v35.23a1.27,1.27,0,0,0,1.15,1.36,1.07,1.07,0,0,0,.52-.14l29.87-17.62A1.47,1.47,0,0,0,333.32,237.52Z"/><path class="cls-1" d="M431.37,237.52a1.29,1.29,0,0,0-.51-.61L401,219.29a1.08,1.08,0,0,0-1.54.61,1.58,1.58,0,0,0-.12.61v35.23a1.27,1.27,0,0,0,1.15,1.36A1,1,0,0,0,401,257l29.88-17.62A1.49,1.49,0,0,0,431.37,237.52Z"/><rect class="cls-1" x="428.22" y="218.44" width="6.55" height="37.95" rx="3.13" ry="3.13"/><rect class="cls-1" x="32.54" y="146.55" width="556.96" height="5.47" rx="2.61" ry="2.61"/><circle class="cls-1" cx="220.37" cy="149.15" r="8.68"/><path class="cls-1" d="M582.56,222.45a9.05,9.05,0,0,1,1.86-.39,11.23,11.23,0,0,1-.16-2.32c-.75-.11-1.51-.18-2.26-.29l.76.75H552.89a10.28,10.28,0,0,0-10.26,10.26v6.38h2v-6.38a8.22,8.22,0,0,1,8.21-8.21h29.87Z"/><path class="cls-1" d="M584.2,237.14v6.38a8.22,8.22,0,0,1-8.21,8.22H546.13l.32-.33c-.52,0-1.05-.09-1.57-.14a2.89,2.89,0,0,0-.33,1.06c0-.11.07.31,0,.24l.12.39c0-.09.19.44.19.43l.3.6c.39,0,.79,0,1.18,0l-.25-.26H576a10.27,10.27,0,0,0,10.26-10.26v-6.38Z"/><path class="cls-1" d="M588.61,221.68l-8.1,5.09a.33.33,0,0,1-.14,0,.36.36,0,0,1-.31-.39V216.24a.47.47,0,0,1,0-.17.29.29,0,0,1,.42-.18l8.1,5.09a.37.37,0,0,1,.14.18A.45.45,0,0,1,588.61,221.68Z"/><path class="cls-1" d="M542.68,251.22a.37.37,0,0,1,.14-.18l8.09-5.08a.28.28,0,0,1,.42.17.57.57,0,0,1,0,.18v10.17c0,.22-.13.39-.31.39a.25.25,0,0,1-.14,0l-8.09-5.09A.44.44,0,0,1,542.68,251.22Z"/><path class="cls-1" d="M87.12,223.36a3.68,3.68,0,0,1,.06-.43,4.67,4.67,0,0,1-.64-.18,3.92,3.92,0,0,1-.47-.22c-10,0-16.86,2.6-22.33,8.31,0,0,0,0,0,0q1,.75,2,1.53c3.35-3.49,8.72-7.49,20.58-7.49h.22c.22-.08.45-.15.67-.21A10,10,0,0,1,87.12,223.36Z"/><path class="cls-1" d="M57.54,238a1.06,1.06,0,0,0-.48.46l-.3.54h0c-4,7.16-8.29,13.14-19.74,13.58V255c12.5-.45,17.31-7.19,21.49-14.68l.3-.55a1.09,1.09,0,0,0,.08-.15C58.43,239.08,58,238.55,57.54,238Z"/><path class="cls-1" d="M86.45,249.66l.35.34a0,0,0,0,1,0,0h-.65c-14.2,0-18.51-6.64-23.06-13.67-4.77-7.35-9.71-15-25.73-15a1.27,1.27,0,0,0-.34,0v2.12a1.35,1.35,0,0,0,.29,0c14.81,0,19.2,6.77,23.85,13.95s9.53,14.69,25,14.69H87c.05-.79.11-1.57.19-2.36C86.94,249.8,86.69,249.73,86.45,249.66Z"/><path class="cls-1" d="M93.87,251.19l-8,5a.33.33,0,0,1-.14,0,.35.35,0,0,1-.31-.39V245.82a.39.39,0,0,1,0-.18.28.28,0,0,1,.41-.17l8,5a.37.37,0,0,1,.14.18A.43.43,0,0,1,93.87,251.19Z"/><path class="cls-1" d="M93.87,224l-8,5a.33.33,0,0,1-.14,0,.36.36,0,0,1-.31-.39V218.67a.39.39,0,0,1,0-.18.28.28,0,0,1,.41-.17l8,5a.37.37,0,0,1,.14.18A.43.43,0,0,1,93.87,224Z"/><path class="cls-1" d="M196.81,239.69l29.87,17.62a1,1,0,0,0,.52.15,1.27,1.27,0,0,0,1.15-1.36V220.86a1.58,1.58,0,0,0-.12-.61,1.08,1.08,0,0,0-1.55-.6l-29.87,17.62a1.24,1.24,0,0,0-.51.61A1.45,1.45,0,0,0,196.81,239.69Z"/><rect class="cls-1" x="192.9" y="218.79" width="6.55" height="37.95" rx="3.13" ry="3.13" transform="translate(392.35 475.54) rotate(-180)"/><path class="cls-1" d="M588.36,32.9a15.9,15.9,0,0,0-11.81-5.14,14.86,14.86,0,0,0-9.27,3.2,18.93,18.93,0,0,0-3.75,3.92A19.47,19.47,0,0,0,559.78,31a14.89,14.89,0,0,0-9.28-3.2,15.9,15.9,0,0,0-11.81,5.14A18.45,18.45,0,0,0,534,45.5c0,5,1.86,9.56,5.86,14.38,3.57,4.32,8.71,8.69,14.65,13.76,2,1.73,4.34,3.69,6.73,5.78a3.45,3.45,0,0,0,4.56,0c2.39-2.09,4.69-4,6.72-5.78,6-5.07,11.09-9.44,14.66-13.76,4-4.82,5.85-9.39,5.85-14.38A18.45,18.45,0,0,0,588.36,32.9Z"/></svg>